<mxfile host="app.diagrams.net" agent="Mozilla/5.0 (Windows NT 10.0; Win64; x64; rv:142.0) Gecko/20100101 Firefox/142.0" version="28.1.2">
  <diagram name="Page-1" id="AlA5dEMn2fKAbXD9TXwp">
    <mxGraphModel dx="1507" dy="628" grid="1" gridSize="10" guides="1" tooltips="1" connect="1" arrows="1" fold="1" page="1" pageScale="1" pageWidth="850" pageHeight="1100" math="0" shadow="0">
      <root>
        <mxCell id="0" />
        <mxCell id="1" parent="0" />
        <mxCell id="Kd-jDQQXTUf9Kw-8TRlB-38" style="edgeStyle=none;rounded=0;orthogonalLoop=1;jettySize=auto;html=1;shape=link;" edge="1" parent="1" target="Kd-jDQQXTUf9Kw-8TRlB-29">
          <mxGeometry relative="1" as="geometry">
            <mxPoint x="63.00455268332722" y="359.9999999999998" as="sourcePoint" />
          </mxGeometry>
        </mxCell>
        <mxCell id="Kd-jDQQXTUf9Kw-8TRlB-47" style="edgeStyle=none;rounded=0;orthogonalLoop=1;jettySize=auto;html=1;exitX=1;exitY=1;exitDx=0;exitDy=0;" edge="1" parent="1" target="Kd-jDQQXTUf9Kw-8TRlB-45">
          <mxGeometry relative="1" as="geometry">
            <mxPoint x="79.61000000000045" y="439.9999999999998" as="sourcePoint" />
            <Array as="points" />
          </mxGeometry>
        </mxCell>
        <mxCell id="xod_KXCUevWS3U83t8kh-3" value="&lt;font style=&quot;font-size: 18px;&quot;&gt;Usuario&lt;/font&gt;" style="rounded=0;whiteSpace=wrap;html=1;" parent="1" vertex="1">
          <mxGeometry x="3" y="360" width="120" height="80" as="geometry" />
        </mxCell>
        <mxCell id="Kd-jDQQXTUf9Kw-8TRlB-68" style="edgeStyle=none;rounded=0;orthogonalLoop=1;jettySize=auto;html=1;" edge="1" parent="1" source="xod_KXCUevWS3U83t8kh-32" target="Kd-jDQQXTUf9Kw-8TRlB-71">
          <mxGeometry relative="1" as="geometry" />
        </mxCell>
        <mxCell id="xod_KXCUevWS3U83t8kh-32" value="&lt;font style=&quot;font-size: 18px;&quot;&gt;Usuarios&lt;/font&gt;" style="shape=cylinder3;whiteSpace=wrap;html=1;boundedLbl=1;backgroundOutline=1;size=15;" parent="1" vertex="1">
          <mxGeometry x="399.61" y="680" width="120" height="80" as="geometry" />
        </mxCell>
        <mxCell id="VsEencDYaokdJrAtoOAQ-66" style="edgeStyle=none;rounded=0;orthogonalLoop=1;jettySize=auto;html=1;shape=link;" parent="1" source="Kd-jDQQXTUf9Kw-8TRlB-42" target="VsEencDYaokdJrAtoOAQ-65" edge="1">
          <mxGeometry relative="1" as="geometry">
            <mxPoint x="589.61" y="870" as="sourcePoint" />
          </mxGeometry>
        </mxCell>
        <mxCell id="VsEencDYaokdJrAtoOAQ-5" value="&lt;font style=&quot;font-size: 14px;&quot;&gt;Gmail&lt;/font&gt;" style="ellipse;whiteSpace=wrap;html=1;aspect=fixed;" parent="1" vertex="1">
          <mxGeometry x="279.61" width="80" height="80" as="geometry" />
        </mxCell>
        <mxCell id="VsEencDYaokdJrAtoOAQ-11" value="&lt;font style=&quot;font-size: 14px;&quot;&gt;Contraseña&lt;/font&gt;" style="ellipse;whiteSpace=wrap;html=1;aspect=fixed;" parent="1" vertex="1">
          <mxGeometry x="359.61" y="80" width="80" height="80" as="geometry" />
        </mxCell>
        <mxCell id="VsEencDYaokdJrAtoOAQ-68" style="edgeStyle=none;rounded=0;orthogonalLoop=1;jettySize=auto;html=1;shape=link;" parent="1" source="VsEencDYaokdJrAtoOAQ-65" target="VsEencDYaokdJrAtoOAQ-69" edge="1">
          <mxGeometry relative="1" as="geometry" />
        </mxCell>
        <mxCell id="VsEencDYaokdJrAtoOAQ-65" value="&lt;font style=&quot;font-size: 14px;&quot;&gt;&lt;u&gt;IP&lt;/u&gt;&lt;/font&gt;" style="ellipse;whiteSpace=wrap;html=1;aspect=fixed;" parent="1" vertex="1">
          <mxGeometry x="219.61" y="960" width="80" height="80" as="geometry" />
        </mxCell>
        <mxCell id="VsEencDYaokdJrAtoOAQ-70" value="" style="group" parent="1" vertex="1" connectable="0">
          <mxGeometry x="339.61" y="960" width="80" height="80" as="geometry" />
        </mxCell>
        <mxCell id="VsEencDYaokdJrAtoOAQ-67" value="" style="ellipse;whiteSpace=wrap;html=1;aspect=fixed;" parent="VsEencDYaokdJrAtoOAQ-70" vertex="1">
          <mxGeometry width="80" height="80" as="geometry" />
        </mxCell>
        <mxCell id="VsEencDYaokdJrAtoOAQ-69" value="&lt;font style=&quot;font-size: 14px;&quot;&gt;Pais&lt;/font&gt;" style="ellipse;whiteSpace=wrap;html=1;aspect=fixed;" parent="VsEencDYaokdJrAtoOAQ-70" vertex="1">
          <mxGeometry x="10" y="10" width="60" height="60" as="geometry" />
        </mxCell>
        <mxCell id="VsEencDYaokdJrAtoOAQ-76" value="&lt;font style=&quot;font-size: 14px;&quot;&gt;&lt;u&gt;ID&lt;/u&gt;&lt;/font&gt;" style="ellipse;whiteSpace=wrap;html=1;aspect=fixed;" parent="1" vertex="1">
          <mxGeometry x="159.61" width="80" height="80" as="geometry" />
        </mxCell>
        <mxCell id="VsEencDYaokdJrAtoOAQ-79" value="&lt;font style=&quot;font-size: 14px;&quot;&gt;Nombre&lt;/font&gt;" style="ellipse;whiteSpace=wrap;html=1;aspect=fixed;" parent="1" vertex="1">
          <mxGeometry x="79.61" y="80" width="80" height="80" as="geometry" />
        </mxCell>
        <mxCell id="Kd-jDQQXTUf9Kw-8TRlB-91" style="edgeStyle=none;rounded=0;orthogonalLoop=1;jettySize=auto;html=1;shape=link;" edge="1" parent="1" source="VsEencDYaokdJrAtoOAQ-85" target="Kd-jDQQXTUf9Kw-8TRlB-89">
          <mxGeometry relative="1" as="geometry" />
        </mxCell>
        <mxCell id="Kd-jDQQXTUf9Kw-8TRlB-93" style="edgeStyle=none;rounded=0;orthogonalLoop=1;jettySize=auto;html=1;shape=link;" edge="1" parent="1" source="VsEencDYaokdJrAtoOAQ-85" target="Kd-jDQQXTUf9Kw-8TRlB-92">
          <mxGeometry relative="1" as="geometry" />
        </mxCell>
        <mxCell id="VsEencDYaokdJrAtoOAQ-85" value="&lt;font style=&quot;font-size: 18px;&quot;&gt;Interacción&lt;/font&gt;" style="shape=cylinder3;whiteSpace=wrap;html=1;boundedLbl=1;backgroundOutline=1;size=15;" parent="1" vertex="1">
          <mxGeometry x="599.61" y="680" width="120" height="80" as="geometry" />
        </mxCell>
        <mxCell id="Kd-jDQQXTUf9Kw-8TRlB-40" style="edgeStyle=none;rounded=0;orthogonalLoop=1;jettySize=auto;html=1;shape=link;" edge="1" parent="1" source="Kd-jDQQXTUf9Kw-8TRlB-24" target="Kd-jDQQXTUf9Kw-8TRlB-29">
          <mxGeometry relative="1" as="geometry" />
        </mxCell>
        <mxCell id="Kd-jDQQXTUf9Kw-8TRlB-75" style="edgeStyle=none;rounded=0;orthogonalLoop=1;jettySize=auto;html=1;" edge="1" parent="1" source="Kd-jDQQXTUf9Kw-8TRlB-24" target="Kd-jDQQXTUf9Kw-8TRlB-45">
          <mxGeometry relative="1" as="geometry" />
        </mxCell>
        <mxCell id="Kd-jDQQXTUf9Kw-8TRlB-24" value="&lt;div&gt;&lt;font style=&quot;font-size: 18px;&quot;&gt;Usuario&lt;/font&gt;&lt;/div&gt;&lt;div&gt;&lt;font style=&quot;font-size: 18px;&quot;&gt;Registrado&lt;/font&gt;&lt;/div&gt;" style="rounded=0;whiteSpace=wrap;html=1;" vertex="1" parent="1">
          <mxGeometry x="199.61" y="360" width="120" height="80" as="geometry" />
        </mxCell>
        <mxCell id="Kd-jDQQXTUf9Kw-8TRlB-31" style="edgeStyle=none;rounded=0;orthogonalLoop=1;jettySize=auto;html=1;shape=link;" edge="1" parent="1" source="Kd-jDQQXTUf9Kw-8TRlB-29" target="VsEencDYaokdJrAtoOAQ-76">
          <mxGeometry relative="1" as="geometry" />
        </mxCell>
        <mxCell id="Kd-jDQQXTUf9Kw-8TRlB-34" style="edgeStyle=none;rounded=0;orthogonalLoop=1;jettySize=auto;html=1;shape=link;" edge="1" parent="1" source="Kd-jDQQXTUf9Kw-8TRlB-29" target="VsEencDYaokdJrAtoOAQ-11">
          <mxGeometry relative="1" as="geometry" />
        </mxCell>
        <mxCell id="Kd-jDQQXTUf9Kw-8TRlB-35" style="edgeStyle=none;rounded=0;orthogonalLoop=1;jettySize=auto;html=1;shape=link;" edge="1" parent="1" source="Kd-jDQQXTUf9Kw-8TRlB-29" target="VsEencDYaokdJrAtoOAQ-5">
          <mxGeometry relative="1" as="geometry" />
        </mxCell>
        <mxCell id="Kd-jDQQXTUf9Kw-8TRlB-36" style="edgeStyle=none;rounded=0;orthogonalLoop=1;jettySize=auto;html=1;shape=link;" edge="1" parent="1" source="Kd-jDQQXTUf9Kw-8TRlB-29" target="VsEencDYaokdJrAtoOAQ-79">
          <mxGeometry relative="1" as="geometry" />
        </mxCell>
        <mxCell id="Kd-jDQQXTUf9Kw-8TRlB-29" value="&lt;font style=&quot;font-size: 14px;&quot;&gt;Propiedades Usuario&lt;/font&gt;" style="ellipse;whiteSpace=wrap;html=1;aspect=fixed;" vertex="1" parent="1">
          <mxGeometry x="199.61" y="119" width="120" height="120" as="geometry" />
        </mxCell>
        <mxCell id="Kd-jDQQXTUf9Kw-8TRlB-39" style="edgeStyle=none;rounded=0;orthogonalLoop=1;jettySize=auto;html=1;shape=link;" edge="1" parent="1" source="Kd-jDQQXTUf9Kw-8TRlB-37" target="Kd-jDQQXTUf9Kw-8TRlB-29">
          <mxGeometry relative="1" as="geometry" />
        </mxCell>
        <mxCell id="Kd-jDQQXTUf9Kw-8TRlB-76" style="edgeStyle=none;rounded=0;orthogonalLoop=1;jettySize=auto;html=1;exitX=0;exitY=1;exitDx=0;exitDy=0;" edge="1" parent="1" source="Kd-jDQQXTUf9Kw-8TRlB-37" target="Kd-jDQQXTUf9Kw-8TRlB-45">
          <mxGeometry relative="1" as="geometry" />
        </mxCell>
        <mxCell id="Kd-jDQQXTUf9Kw-8TRlB-37" value="&lt;div&gt;&lt;font style=&quot;font-size: 18px;&quot;&gt;Super&lt;/font&gt;&lt;/div&gt;&lt;div&gt;&lt;font style=&quot;font-size: 18px;&quot;&gt;Usuario&lt;/font&gt;&lt;/div&gt;" style="rounded=0;whiteSpace=wrap;html=1;" vertex="1" parent="1">
          <mxGeometry x="399.61" y="360" width="120" height="80" as="geometry" />
        </mxCell>
        <mxCell id="Kd-jDQQXTUf9Kw-8TRlB-43" style="edgeStyle=none;rounded=0;orthogonalLoop=1;jettySize=auto;html=1;shape=link;" edge="1" parent="1" source="Kd-jDQQXTUf9Kw-8TRlB-42" target="VsEencDYaokdJrAtoOAQ-1">
          <mxGeometry relative="1" as="geometry" />
        </mxCell>
        <mxCell id="Kd-jDQQXTUf9Kw-8TRlB-95" style="edgeStyle=none;rounded=0;orthogonalLoop=1;jettySize=auto;html=1;shape=link;exitX=0;exitY=1;exitDx=0;exitDy=0;" edge="1" parent="1" source="Kd-jDQQXTUf9Kw-8TRlB-42" target="Kd-jDQQXTUf9Kw-8TRlB-94">
          <mxGeometry relative="1" as="geometry" />
        </mxCell>
        <mxCell id="Kd-jDQQXTUf9Kw-8TRlB-42" value="&lt;font style=&quot;font-size: 18px;&quot;&gt;Sesión&lt;/font&gt;" style="rounded=0;whiteSpace=wrap;html=1;" vertex="1" parent="1">
          <mxGeometry x="199.61" y="840" width="120" height="80" as="geometry" />
        </mxCell>
        <mxCell id="Kd-jDQQXTUf9Kw-8TRlB-49" style="edgeStyle=none;rounded=0;orthogonalLoop=1;jettySize=auto;html=1;exitX=0.5;exitY=1;exitDx=0;exitDy=0;" edge="1" parent="1" source="Kd-jDQQXTUf9Kw-8TRlB-45" target="Kd-jDQQXTUf9Kw-8TRlB-42">
          <mxGeometry relative="1" as="geometry" />
        </mxCell>
        <mxCell id="Kd-jDQQXTUf9Kw-8TRlB-45" value="&lt;font style=&quot;font-size: 14px;&quot;&gt;Inicia&lt;/font&gt;" style="rhombus;whiteSpace=wrap;html=1;" vertex="1" parent="1">
          <mxGeometry x="199.61" y="520" width="120" height="80" as="geometry" />
        </mxCell>
        <mxCell id="Kd-jDQQXTUf9Kw-8TRlB-55" style="edgeStyle=none;rounded=0;orthogonalLoop=1;jettySize=auto;html=1;" edge="1" parent="1" target="xod_KXCUevWS3U83t8kh-32">
          <mxGeometry relative="1" as="geometry">
            <mxPoint x="79.61000000000045" y="720" as="sourcePoint" />
          </mxGeometry>
        </mxCell>
        <mxCell id="Kd-jDQQXTUf9Kw-8TRlB-56" value="" style="edgeStyle=none;rounded=0;orthogonalLoop=1;jettySize=auto;html=1;" edge="1" parent="1" source="xod_KXCUevWS3U83t8kh-3" target="Kd-jDQQXTUf9Kw-8TRlB-78">
          <mxGeometry relative="1" as="geometry">
            <mxPoint x="443" y="438" as="sourcePoint" />
            <mxPoint x="103" y="600" as="targetPoint" />
          </mxGeometry>
        </mxCell>
        <mxCell id="Kd-jDQQXTUf9Kw-8TRlB-72" style="edgeStyle=none;rounded=0;orthogonalLoop=1;jettySize=auto;html=1;entryX=1;entryY=1;entryDx=0;entryDy=0;" edge="1" parent="1" source="Kd-jDQQXTUf9Kw-8TRlB-71" target="Kd-jDQQXTUf9Kw-8TRlB-24">
          <mxGeometry relative="1" as="geometry" />
        </mxCell>
        <mxCell id="Kd-jDQQXTUf9Kw-8TRlB-73" style="edgeStyle=none;rounded=0;orthogonalLoop=1;jettySize=auto;html=1;" edge="1" parent="1" source="Kd-jDQQXTUf9Kw-8TRlB-71" target="Kd-jDQQXTUf9Kw-8TRlB-37">
          <mxGeometry relative="1" as="geometry" />
        </mxCell>
        <mxCell id="Kd-jDQQXTUf9Kw-8TRlB-71" value="&lt;font style=&quot;font-size: 14px;&quot;&gt;Valida&lt;/font&gt;" style="rhombus;whiteSpace=wrap;html=1;" vertex="1" parent="1">
          <mxGeometry x="399.61" y="520" width="120" height="80" as="geometry" />
        </mxCell>
        <mxCell id="Kd-jDQQXTUf9Kw-8TRlB-78" value="&lt;font style=&quot;font-size: 14px;&quot;&gt;Se registra en&lt;/font&gt;" style="rhombus;whiteSpace=wrap;html=1;" vertex="1" parent="1">
          <mxGeometry x="3" y="680" width="120" height="80" as="geometry" />
        </mxCell>
        <mxCell id="VsEencDYaokdJrAtoOAQ-1" value="&lt;div&gt;&lt;font style=&quot;font-size: 14px;&quot;&gt;Tiempo de retención&lt;/font&gt;&lt;/div&gt;" style="ellipse;whiteSpace=wrap;html=1;aspect=fixed;" parent="1" vertex="1">
          <mxGeometry x="79.61" y="840" width="80" height="80" as="geometry" />
        </mxCell>
        <mxCell id="Kd-jDQQXTUf9Kw-8TRlB-80" style="edgeStyle=none;rounded=0;orthogonalLoop=1;jettySize=auto;html=1;entryX=0.5;entryY=1;entryDx=0;entryDy=0;entryPerimeter=0;" edge="1" parent="1" source="Kd-jDQQXTUf9Kw-8TRlB-84" target="VsEencDYaokdJrAtoOAQ-85">
          <mxGeometry relative="1" as="geometry">
            <Array as="points" />
          </mxGeometry>
        </mxCell>
        <mxCell id="Kd-jDQQXTUf9Kw-8TRlB-82" style="edgeStyle=none;rounded=0;orthogonalLoop=1;jettySize=auto;html=1;" edge="1" parent="1" source="Kd-jDQQXTUf9Kw-8TRlB-86" target="VsEencDYaokdJrAtoOAQ-85">
          <mxGeometry relative="1" as="geometry">
            <Array as="points" />
          </mxGeometry>
        </mxCell>
        <mxCell id="Kd-jDQQXTUf9Kw-8TRlB-83" value="" style="edgeStyle=none;rounded=0;orthogonalLoop=1;jettySize=auto;html=1;exitX=1;exitY=0.5;exitDx=0;exitDy=0;" edge="1" parent="1" source="Kd-jDQQXTUf9Kw-8TRlB-42" target="Kd-jDQQXTUf9Kw-8TRlB-84">
          <mxGeometry relative="1" as="geometry">
            <mxPoint x="319.61" y="870" as="sourcePoint" />
            <mxPoint x="439.61" y="870" as="targetPoint" />
            <Array as="points" />
          </mxGeometry>
        </mxCell>
        <mxCell id="Kd-jDQQXTUf9Kw-8TRlB-84" value="&lt;font style=&quot;font-size: 14px;&quot;&gt;Registra&lt;/font&gt;" style="rhombus;whiteSpace=wrap;html=1;" vertex="1" parent="1">
          <mxGeometry x="479.61" y="840" width="120" height="80" as="geometry" />
        </mxCell>
        <mxCell id="Kd-jDQQXTUf9Kw-8TRlB-85" value="" style="edgeStyle=none;rounded=0;orthogonalLoop=1;jettySize=auto;html=1;exitX=1;exitY=0.5;exitDx=0;exitDy=0;" edge="1" parent="1" source="Kd-jDQQXTUf9Kw-8TRlB-37" target="Kd-jDQQXTUf9Kw-8TRlB-86">
          <mxGeometry relative="1" as="geometry">
            <mxPoint x="479.61" y="400" as="sourcePoint" />
            <mxPoint x="619.61" y="640" as="targetPoint" />
            <Array as="points" />
          </mxGeometry>
        </mxCell>
        <mxCell id="Kd-jDQQXTUf9Kw-8TRlB-86" value="&lt;div&gt;&lt;font style=&quot;font-size: 14px;&quot;&gt;Consulta&lt;/font&gt;&lt;/div&gt;&lt;div&gt;&lt;font style=&quot;font-size: 14px;&quot;&gt;Estadisticas&lt;/font&gt;&lt;/div&gt;" style="rhombus;whiteSpace=wrap;html=1;" vertex="1" parent="1">
          <mxGeometry x="599.61" y="480" width="120" height="80" as="geometry" />
        </mxCell>
        <mxCell id="Kd-jDQQXTUf9Kw-8TRlB-97" value="" style="edgeStyle=none;rounded=0;orthogonalLoop=1;jettySize=auto;html=1;" edge="1" parent="1" source="Kd-jDQQXTUf9Kw-8TRlB-89" target="VsEencDYaokdJrAtoOAQ-85">
          <mxGeometry relative="1" as="geometry" />
        </mxCell>
        <mxCell id="Kd-jDQQXTUf9Kw-8TRlB-89" value="&lt;font style=&quot;font-size: 14px;&quot;&gt;Tiempo de retención&lt;/font&gt;" style="ellipse;whiteSpace=wrap;html=1;aspect=fixed;" vertex="1" parent="1">
          <mxGeometry x="760" y="620" width="80" height="80" as="geometry" />
        </mxCell>
        <mxCell id="Kd-jDQQXTUf9Kw-8TRlB-92" value="&lt;div&gt;&lt;font style=&quot;font-size: 14px;&quot;&gt;Cantidad&lt;/font&gt;&lt;/div&gt;&lt;div&gt;&lt;font style=&quot;font-size: 14px;&quot;&gt;de inputs&lt;/font&gt;&lt;/div&gt;" style="ellipse;whiteSpace=wrap;html=1;aspect=fixed;" vertex="1" parent="1">
          <mxGeometry x="760" y="740" width="80" height="80" as="geometry" />
        </mxCell>
        <mxCell id="Kd-jDQQXTUf9Kw-8TRlB-94" value="&lt;div&gt;&lt;font style=&quot;font-size: 14px;&quot;&gt;Cantidad&lt;/font&gt;&lt;/div&gt;&lt;div&gt;&lt;font style=&quot;font-size: 14px;&quot;&gt;de inputs&lt;/font&gt;&lt;/div&gt;" style="ellipse;whiteSpace=wrap;html=1;aspect=fixed;" vertex="1" parent="1">
          <mxGeometry x="109.61" y="940" width="80" height="80" as="geometry" />
        </mxCell>
      </root>
    </mxGraphModel>
  </diagram>
</mxfile>
